<svg xmlns="http://www.w3.org/2000/svg" viewBox="0 0 762 762" fill="none" shape-rendering="auto" aria-hidden="true" width="512" height="512"><metadata xmlns:rdf="http://www.w3.org/1999/02/22-rdf-syntax-ns#" xmlns:xsi="http://www.w3.org/2001/XMLSchema-instance" xmlns:dc="http://purl.org/dc/elements/1.1/" xmlns:dcterms="http://purl.org/dc/terms/"><rdf:RDF><rdf:Description><dc:title>Adventurer</dc:title><dc:creator>Lisa Wischofsky</dc:creator><dc:source xsi:type="dcterms:URI">https://www.figma.com/community/file/1184595184137881796</dc:source><dcterms:license xsi:type="dcterms:URI">https://creativecommons.org/licenses/by/4.0/</dcterms:license><dc:rights>Remix of “Adventurer” (https://www.figma.com/community/file/1184595184137881796) by “Lisa Wischofsky”, licensed under “CC BY 4.0” (https://creativecommons.org/licenses/by/4.0/)</dc:rights></rdf:Description></rdf:RDF></metadata><defs><g id="head-default-c41e3a4b"><path d="M252.8 2a225 225 0 0 1 104.8 42.3c6.2 4.9 12.5 9.4 18 15a225 225 0 0 1 71.8 149 58.5 58.5 0 0 1 50.9 42.2 71 71 0 0 1-27.7 76.5 64 64 0 0 1-37.8 11.7c-5.1 0-10-1.6-15.1-1.8q-2.7 3.5-4.8 7.3a223 223 0 0 1-167.1 102.7c-11 .7-21.9 2-33 .7A223.7 223.7 0 0 1 34 105.3 223 223 0 0 1 208.8.6a216 216 0 0 1 44 1.3" fill="black"/><path fill-rule="evenodd" clip-rule="evenodd" d="M355.6 50.3A216 216 0 0 0 219.8 6.2a197 197 0 0 0-39 4A218 218 0 0 0 67.2 375.8 218.5 218.5 0 0 0 327.6 416c35-18.8 64.3-47.3 84.4-81.5l-3-1.6q-4.4-2-8-5c-2.2-2-.3-5.8 2.7-4.7q2.3 1.1 4.4 2.4 2.2 1.6 4.7 2.6a55 55 0 0 0 54.9-6.2 64.5 64.5 0 0 0 25-69.8 53 53 0 0 0-24-31c-13.4-8-30-9-44.7-3.7l-2.3 1c-1.6.7-3.4 1.4-5 1.2-2.5-.2-2.8-4.2-.6-5.2 8-4 16.5-5.6 25.4-6.4A217 217 0 0 0 373 65l-3.6-3.3c-4.3-4-8.6-8.1-13.8-11.3m107.6 196.2c2-1.2 1.3-5.1-1.4-5-2 0-4.2.8-6.2 1.6l-1.4.5a95 95 0 0 0-25.5 12.3c-2.2 2-2.2 4.4.1 6.2l5.2 2.8a36 36 0 0 1 13 9.3c-.2 1.8-2 3.3-3.4 4.4l-.2.2c-3.9 3-8.8 5-13.6 7l-7.2 3.1c-1.6.8-2.5 2.2-1.5 3.9 1 2 3.2 1.1 5 .5l.6-.2 5.4-2.3c5.4-2.3 11-4.5 15.4-8 2.7-2.1 5.1-5.1 5.4-8.7-.5-3.4-2.7-5.7-5.3-7.8-3.5-2.8-7.7-5-11.6-7.2l-1.1-.6q8-4.5 16.7-7.7l4.8-1.7a52 52 0 0 0 6.8-2.6" fill="#ecad80"/></g><g id="eyes-variant10-c41e3a4b"><path d="M240.3.9a65.2 65.2 0 0 1 65.3 75.5c-1 7.5-4 14.2-6.8 21.2-1.4.6-2.9 1.5-4.4 1.8-2.4 0-4.8-1-7-1.6a179 179 0 0 0-49.1-7.6 96 96 0 0 0-43 9.6c-3.2 1.3-6 4-9 1.3A65 65 0 0 1 240.2.9" fill="black"/><path d="M241.3 6.6a59 59 0 0 1 57.1 43.2 59 59 0 0 1-4.3 43.5c-5.3-.6-10.2-2.6-15.4-3.8-16-3.7-33-5.8-49.4-4.4A92 92 0 0 0 190 96.6a59.5 59.5 0 0 1 51.3-90" fill="white"/><path d="M65.6 23.9a55.4 55.4 0 0 1 59.9 45.4 54.9 54.9 0 0 1-101 38.2 57 57 0 0 1-8.3-26.6 55 55 0 0 1 49.4-57" fill="black"/><path d="M60.8 30.5a49.3 49.3 0 1 1 20.9 96.3 49.3 49.3 0 0 1-21-96.3" fill="white"/><path d="M203.7 51.6a15.9 15.9 0 1 1 7.2 30.8c-9.2 2.3-19-5-19-14.6a16 16 0 0 1 11.8-16.2m-116 10.8a16 16 0 1 1-4.4 28.4 15.9 15.9 0 0 1 4.4-28.4" fill="black"/></g><g id="eyebrows-variant13-c41e3a4b"><path d="M298.4 55.5a134 134 0 0 0-92-35 175 175 0 0 0-26.5 3q-2.1 5-3.5 10l-1.1 3.7-.1-1.4-1.3-11.4-3.3-1.5-.8 1.1q-1 1.2-1.2 2.4 0 5.7.7 11.3a113 113 0 0 1 .8 10.5c.2 2.4.3 5 1.7 6.8 2.8.8 6-.3 9-1.3l3-1c19-5.5 39.2-6.8 58.8-4.4 20 2.3 40 8.3 57.4 18.6q3 1.5 6.1 2.5L308 66q-4.1-5.8-9.5-10.5M106.6 48q.4-6.2 0-12.6c-.2-2.5-1.8-2.5-3.7-2.6h-1c-.9 3.6-1 7.5-1.2 11.3l-.2 5Q98 43.4 96 37.7l-.4-.8c-.4-1.1-1-2.3-2.2-2.3q-3.7 0-7.6.9l-3.4.6a128 128 0 0 0-52 20.3A53 53 0 0 0 13.5 75c-1.4 3.2-2.8 6.5-1.5 10h.4c1 .4 2.6.9 3.4.1l2.7-2.1q3-2.7 6.5-4.6A153 153 0 0 1 93.4 63q2.7.1 5.4.5 3 .5 5.7.5c1.8-1.2 1.8-3.6 1.9-5.7v-1.8z" fill="black"/></g><g id="mouth-variant26-c41e3a4b"><path d="M123.5 15.8a55 55 0 0 1 38.6 13c6 5.6 9.7 13.4 9.9 21.6A44 44 0 0 1 162 78a88 88 0 0 1-35.5 26.5c-7.3 2.9-14.4 5.8-22.1 7.3a86 86 0 0 1-50-5.3A131 131 0 0 1 16 81.8 55 55 0 0 1 3 62.9C.9 57.4.5 51 4 46c3.7-5.4 10-7.7 16.2-8.8 12.6-1.8 24.4.4 36.5 3.7a92 92 0 0 1 25-16.2c13-5.7 27.4-9.3 41.7-8.9" fill="black"/><path d="M149 26.7c-3.5 2.7-7.4 4.8-10.9 7.4-4.3 4-7.6 11-12.7 14-5.2 1-10.5-3.2-15.2-1q-14 5.1-28.5 7.9a118 118 0 0 1-43.6.9c-4.3-1.1-7.2 1.3-11.5 1.8-4.4-4.2-7.5-9.2-12.7-12.5 12.7-5.4 28.7-2 41.6 1.5 4 1.2 6-2.5 8.8-4.5a97 97 0 0 1 47.2-19.9 68 68 0 0 1 37.5 4.4" fill="white"/><path d="M154.5 30.3a26 26 0 0 1 11.8 21.1c-.2 7.4-3 14-6.8 20.2a46 46 0 0 0-20-2.8 138 138 0 0 0-42 9.6c-9 3.7-18 8.3-25.7 14.3-3.7 3-6.4 6.2-8.7 10.4a93 93 0 0 1-21.6-9.7c-9.9-5.9-19-12.7-26.5-21.5-3.7-4.7-7.5-10.4-7.7-16.5C7 53 8.2 51 9 48.8c5.4 3.7 9.3 8.7 14.2 12.9 4 3.4 9.2-.7 13.8 0q8.7 1.4 17.5 1.8Q85.3 63 114 52c4.2.8 10 2.7 14 1 5-2.8 8.6-8.6 12.2-12.9 1.4-1.7 3.8-3 5.7-4.2 2.9-1.7 5.5-4 8.4-5.6" fill="#8F2E45"/><path d="M142.5 74.6q6.8-.1 13.3 1.9a87 87 0 0 1-35.9 24.4 86 86 0 0 1-51.2 3.9q2.9-4.2 6.8-7.4a103 103 0 0 1 31-16c11.5-3.8 23.8-6.6 36-6.8" fill="#EA869E"/></g><g id="hair-short10-c41e3a4b"><path d="M388.6 167.7c31.3-2 63.4.1 93.9 8a200 200 0 0 1 60.9 26.1c23.4-3.9 47.9.9 69.4 10.4A172 172 0 0 1 673 258a165 165 0 0 1 38.7 87.4c1 12.2.9 25-1.8 37a92 92 0 0 1-26.1 48.2c-1.9 1.5-3 2.2-5.4 1a61 61 0 0 0-49.6-3c1 10.6.3 21-4.5 30.6a33 33 0 0 1-15.7 15.6c-2.7.9-4.6-1.4-3.5-4 3.3-8.1 3-16.7 2.8-25.4a149 149 0 0 0-2.9-23.5q-11.5 1.5-22.5-2.4a87 87 0 0 1-37-29 205 205 0 0 1-27.8-49.2c-9.5-23.3-16-48-20.2-72.9-.7-3.8-1-7.6-2.1-11.3q-30.5-1.5-60.8-.4a632 632 0 0 0-65 7 453 453 0 0 0-96.2 25.6c-2.5 1.1-5 1.9-6.9 4a146 146 0 0 0-16.2 21.8 259 259 0 0 0-27 59.1c-1.1 3.2-1.6 6.8-3.2 9.7-1.4 1.6-3.4 1-4.8-.2a103 103 0 0 1-29.8-41.3 83 83 0 0 1-4.4-39.8c2.6-19 11.3-36.6 23.2-51.6 19-24 45.9-42.4 73.5-55.3a317 317 0 0 1 110.8-28" fill="black"/><path d="M421.6 173c7.7.6 15.3.6 23 1.7a219 219 0 0 1 95.6 32q1.2.8 2.4 1.2a105 105 0 0 1 49.8 3 160 160 0 0 1 77.4 52.4 162 162 0 0 1 34.3 71 116 116 0 0 1-.7 50.1 86 86 0 0 1-23.1 41.5 68 68 0 0 0-52.2-3.1c-2 .8-5.6 1.7-5.4 4.5 2.1 13 0 28-9.7 37.6a148 148 0 0 0-2.5-45.5c-.7-3-1.8-3.8-4.9-3.4q-13.5 2-25.8-4a84 84 0 0 1-28.4-23.4c-12.3-15-21.6-33-28.9-51a354 354 0 0 1-20.6-78.2c-.5-2.2.3-6.7-2.4-7.6-7.3-.7-14.6-.8-21.9-1.4-13.6 0-27.4-.6-41 .6q-19 .6-38 2.9-40.5 4.3-79.9 14.5c-20 5.2-40 11.8-58.6 20.5a153 153 0 0 0-32.5 19.6 53 53 0 0 0-15.5 19.4c-.6 1.8-1.6 3.7-.8 5.7 1.8 2 4.6 1.4 5.3-1.2q3.1-8.3 9.5-14.5c8.1-8.3 18.7-14.7 28.8-20q-5.9 7.6-10.9 16a266 266 0 0 0-27.7 63 96 96 0 0 1-25.4-36.8 81 81 0 0 1 2-58.5 133 133 0 0 1 38.2-49.7 225 225 0 0 1 52-32.2c32.2-14.5 67.3-23 102.5-25.8 12-.7 23.9-1.8 36-1" fill="#ab2a18"/></g><clipPath id="clip-c41e3a4b"><rect width="762" height="762" rx="0" ry="0"/></clipPath></defs><g clip-path="url(#clip-c41e3a4b)"><g transform="rotate(1, 381, 381)"><g transform="translate(762, 0) scale(-1, 1)"><use transform="translate(143.2 162.9)" href="#head-default-c41e3a4b"/><use transform="translate(154.7 340.2)" href="#eyes-variant10-c41e3a4b"/><use transform="translate(154.6 268.5)" href="#eyebrows-variant13-c41e3a4b"/><use transform="translate(232.5 456.6)" href="#mouth-variant26-c41e3a4b"/><use transform="translate(-65.6 -47.4)" href="#hair-short10-c41e3a4b"/></g></g></g></svg>